<svg width="657.9px" height="122px" xmlns="http://www.w3.org/2000/svg" viewBox="-78.96251220703124 13.9893798828125 657.9250244140625 122.021240234375" style="background: rgba(0, 0, 0, 0)" preserveAspectRatio="xMidYMid"><defs><linearGradient id="editing-gradient-gradient" x1="0" x2="1" y1="0.5" y2="0.5" gradientUnits="objectBoundingBox"><stop offset="0" stop-color="#00ffff"></stop><stop offset="1" stop-color="#ff00ff"></stop></linearGradient></defs><g><g transform="matrix(1.3,0,0,1.4,-45.9,158.9)"><path d="M 16.2 -37.5 L 2.2 -37.5 L 10.4 -79.7 L 24.4 -79.7 L 16.2 -37.5 Z M 71.9 -36.2 L 71.9 -36.2 L 71.9 -36.2 Q 64.2 -36.2 64.2 -42.2 L 64.2 -42.2 L 64.2 -42.2 Q 64.2 -44.8 65.3 -49.9 L 65.3 -49.9 L 65.3 -49.9 Q 66.4 -55 66.8 -57.1 L 66.8 -57.1 L 66.8 -57.1 Q 67.7 -61.7 67.7 -63.2 L 67.7 -63.2 L 67.7 -63.2 Q 67.7 -66.5 65.3 -66.5 L 65.3 -66.5 L 65.3 -66.5 Q 63.7 -66.5 62.1 -64.3 L 62.1 -64.3 L 62.1 -64.3 Q 60.6 -62.1 59.9 -57.6 L 59.9 -57.6 L 55.9 -37.5 L 43.4 -36.2 L 46.9 -53.6 L 46.9 -53.6 Q 47.5 -56.5 48 -59.7 L 48 -59.7 L 48 -59.7 Q 48.5 -63 48.5 -63.5 L 48.5 -63.5 L 48.5 -63.5 Q 48.5 -66.5 46.3 -66.5 L 46.3 -66.5 L 46.3 -66.5 Q 44.9 -66.5 43.3 -64.3 L 43.3 -64.3 L 43.3 -64.3 Q 41.7 -62.1 40.8 -57.6 L 40.8 -57.6 L 36.9 -37.5 L 24.2 -36.2 L 31 -70.1 L 41.4 -71.4 L 40.3 -64.9 L 40.3 -64.9 Q 42 -68.4 45 -69.9 L 45 -69.9 L 45 -69.9 Q 48.1 -71.4 52.9 -71.4 L 52.9 -71.4 L 52.9 -71.4 Q 55.7 -71.4 57.5 -70.1 L 57.5 -70.1 L 57.5 -70.1 Q 59.3 -68.7 59.8 -66.5 L 59.8 -66.5 L 59.8 -66.5 Q 60.9 -68.8 63.7 -70.1 L 63.7 -70.1 L 63.7 -70.1 Q 66.5 -71.4 69.9 -71.4 L 69.9 -71.4 L 69.9 -71.4 Q 73.3 -71.4 75 -70.7 L 75 -70.7 L 75 -70.7 Q 76.7 -69.9 77.7 -68.7 L 77.7 -68.7 L 77.7 -68.7 Q 79.5 -66.5 79.5 -62.4 L 79.5 -62.4 L 79.5 -62.4 Q 79.5 -58.3 77.7 -50 L 77.7 -50 L 77.7 -50 Q 76.9 -45.9 76.9 -44.4 L 76.9 -44.4 L 76.9 -44.4 Q 76.9 -42.9 77.7 -42 L 77.7 -42 L 77.7 -42 Q 78.6 -41.1 79.9 -40.9 L 79.9 -40.9 L 79.9 -40.9 Q 79.2 -38.8 77 -37.5 L 77 -37.5 L 77 -37.5 Q 74.8 -36.2 71.9 -36.2 Z M 87.6 -39.4 L 87.6 -39.4 L 87.6 -39.4 Q 86.1 -41.1 85.4 -43.7 L 85.4 -43.7 L 85.4 -43.7 Q 84.7 -46.3 84.7 -50.6 L 84.7 -50.6 L 84.7 -50.6 Q 84.7 -54.9 86.2 -58.8 L 86.2 -58.8 L 86.2 -58.8 Q 87.7 -62.7 90.4 -65.5 L 90.4 -65.5 L 90.4 -65.5 Q 95.9 -71.4 104.9 -71.4 L 104.9 -71.4 L 104.9 -71.4 Q 108.2 -71.4 110.6 -70.3 L 110.6 -70.3 L 121.5 -71.4 L 116.8 -46.4 L 116.8 -46.4 Q 116.6 -45.7 116.6 -44.3 L 116.6 -44.3 L 116.6 -44.3 Q 116.6 -42.9 117.5 -42 L 117.5 -42 L 117.5 -42 Q 118.3 -41.1 119.6 -40.9 L 119.6 -40.9 L 119.6 -40.9 Q 119 -38.8 116.6 -37.5 L 116.6 -37.5 L 116.6 -37.5 Q 114.3 -36.2 111.7 -36.2 L 111.7 -36.2 L 111.7 -36.2 Q 109 -36.2 107.3 -37.2 L 107.3 -37.2 L 107.3 -37.2 Q 105.5 -38.2 105 -39.8 L 105 -39.8 L 105 -39.8 Q 104 -38.2 101.8 -37.2 L 101.8 -37.2 L 101.8 -37.2 Q 99.6 -36.2 96.7 -36.2 L 96.7 -36.2 L 96.7 -36.2 Q 93.8 -36.2 91.4 -37 L 91.4 -37 L 91.4 -37 Q 89.1 -37.7 87.6 -39.4 Z M 101.1 -65.4 L 101.1 -65.4 L 101.1 -65.4 Q 100.3 -64.2 99.7 -62.3 L 99.7 -62.3 L 99.7 -62.3 Q 99.1 -60.3 98 -55.1 L 98 -55.1 L 98 -55.1 Q 96.9 -49.9 96.9 -46.2 L 96.9 -46.2 L 96.9 -46.2 Q 96.9 -42.5 97.5 -41.4 L 97.5 -41.4 L 97.5 -41.4 Q 98.1 -40.3 99.1 -40.3 L 99.1 -40.3 L 99.1 -40.3 Q 101.2 -40.3 102.7 -42.2 L 102.7 -42.2 L 102.7 -42.2 Q 104.2 -44.2 104.8 -47.7 L 104.8 -47.7 L 108.1 -66.4 L 108.1 -66.4 Q 106.8 -67.6 105.2 -67.6 L 105.2 -67.6 L 105.2 -67.6 Q 103.7 -67.6 102.7 -67 L 102.7 -67 L 102.7 -67 Q 101.8 -66.5 101.1 -65.4 Z M 129.3 -64.2 L 129.3 -64.2 L 129.3 -64.2 Q 131.4 -67.3 134.7 -69.3 L 134.7 -69.3 L 134.7 -69.3 Q 138 -71.4 142.1 -71.4 L 142.1 -71.4 L 142.1 -71.4 Q 146.1 -71.4 148 -70.1 L 148 -70.1 L 160.6 -71.4 L 156.2 -46.8 L 156.2 -46.8 Q 154 -34.3 149.2 -29.3 L 149.2 -29.3 L 149.2 -29.3 Q 144.7 -24.7 135.9 -24.7 L 135.9 -24.7 L 135.9 -24.7 Q 129.1 -24.7 125.3 -26.8 L 125.3 -26.8 L 125.3 -26.8 Q 121.5 -28.9 121.5 -32.4 L 121.5 -32.4 L 121.5 -32.4 Q 121.5 -35 123.4 -36.5 L 123.4 -36.5 L 123.4 -36.5 Q 125.4 -38.1 128.5 -38.1 L 128.5 -38.1 L 128.5 -38.1 Q 131.2 -38.1 133.2 -36.8 L 133.2 -36.8 L 133.2 -36.8 Q 134.5 -36.2 135 -35.3 L 135 -35.3 L 135 -35.3 Q 133.6 -34 133.6 -31.9 L 133.6 -31.9 L 133.6 -31.9 Q 133.6 -29.2 136.1 -29.2 L 136.1 -29.2 L 136.1 -29.2 Q 140.4 -29.2 142.8 -39.3 L 142.8 -39.3 L 142.8 -39.3 Q 143.5 -42 144.1 -44.8 L 144.1 -44.8 L 144.1 -44.8 Q 141.2 -41.3 134.7 -41.3 L 134.7 -41.3 L 134.7 -41.3 Q 130.2 -41.3 127.5 -43.4 L 127.5 -43.4 L 127.5 -43.4 Q 124.9 -45.6 124.9 -50.7 L 124.9 -50.7 L 124.9 -50.7 Q 124.9 -53.9 126 -57.5 L 126 -57.5 L 126 -57.5 Q 127.1 -61.2 129.3 -64.2 Z M 137.6 -50.5 L 137.6 -50.5 L 137.6 -50.5 Q 137.6 -46.2 139.8 -46.2 L 139.8 -46.2 L 139.8 -46.2 Q 141.4 -46.2 142.8 -47.8 L 142.8 -47.8 L 142.8 -47.8 Q 144 -49.2 144.4 -51.2 L 144.4 -51.2 L 147.7 -67.6 L 147.7 -67.6 Q 147.4 -67.7 147.1 -67.8 L 147.1 -67.8 L 147.1 -67.8 Q 146.4 -68.1 145.6 -68.1 L 145.6 -68.1 L 145.6 -68.1 Q 141.7 -68.1 139.4 -61.7 L 139.4 -61.7 L 139.4 -61.7 Q 137.6 -56.7 137.6 -50.5 Z M 189 -48.3 L 189 -48.3 L 189 -48.3 Q 190.6 -47.2 190.6 -44.8 L 190.6 -44.8 L 190.6 -44.8 Q 190.6 -42.4 189.4 -40.9 L 189.4 -40.9 L 189.4 -40.9 Q 188.1 -39.3 186.2 -38.3 L 186.2 -38.3 L 186.2 -38.3 Q 182.1 -36.2 177.7 -36.2 L 177.7 -36.2 L 177.7 -36.2 Q 173.2 -36.2 170.6 -37.2 L 170.6 -37.2 L 170.6 -37.2 Q 168.1 -38.1 166.3 -39.9 L 166.3 -39.9 L 166.3 -39.9 Q 162.9 -43.3 162.9 -49.5 L 162.9 -49.5 L 162.9 -49.5 Q 162.9 -59.2 168.2 -65.1 L 168.2 -65.1 L 168.2 -65.1 Q 173.8 -71.4 183.6 -71.4 L 183.6 -71.4 L 183.6 -71.4 Q 189.7 -71.4 192.7 -68.8 L 192.7 -68.8 L 192.7 -68.8 Q 194.9 -66.9 194.9 -63.8 L 194.9 -63.8 L 194.9 -63.8 Q 194.9 -52.5 175.5 -52.5 L 175.5 -52.5 L 175.5 -52.5 Q 175.2 -50.9 175.2 -49.4 L 175.2 -49.4 L 175.2 -49.4 Q 175.2 -46.5 176.5 -45.4 L 176.5 -45.4 L 176.5 -45.4 Q 177.8 -44.3 180.3 -44.3 L 180.3 -44.3 L 180.3 -44.3 Q 182.7 -44.3 185.3 -45.4 L 185.3 -45.4 L 185.3 -45.4 Q 187.9 -46.5 189 -48.3 Z M 175.9 -55.3 L 175.9 -55.3 L 175.9 -55.3 Q 180.5 -55.3 183.1 -58.1 L 183.1 -58.1 L 183.1 -58.1 Q 185.7 -60.8 185.7 -65.1 L 185.7 -65.1 L 185.7 -65.1 Q 185.7 -66.5 185.2 -67.3 L 185.2 -67.3 L 185.2 -67.3 Q 184.6 -68.1 183.5 -68.1 L 183.5 -68.1 L 183.5 -68.1 Q 182.5 -68.1 181.5 -67.7 L 181.5 -67.7 L 181.5 -67.7 Q 180.6 -67.3 179.6 -65.9 L 179.6 -65.9 L 179.6 -65.9 Q 177.3 -62.7 175.9 -55.3 Z M 216.2 -59.9 L 216.2 -59.9 L 216.2 -59.9 Q 217.1 -62.3 217.1 -64.4 L 217.1 -64.4 L 217.1 -64.4 Q 217.1 -68.1 214.1 -68.1 L 214.1 -68.1 L 214.1 -68.1 Q 212.5 -68.1 211.2 -66.7 L 211.2 -66.7 L 211.2 -66.7 Q 209.8 -65.3 209.8 -63.5 L 209.8 -63.5 L 209.8 -63.5 Q 209.8 -62.2 210.9 -61.2 L 210.9 -61.2 L 210.9 -61.2 Q 212.3 -59.7 216.1 -57.4 L 216.1 -57.4 L 216.1 -57.4 Q 219.9 -55.1 221.3 -53.3 L 221.3 -53.3 L 221.3 -53.3 Q 222.8 -51.4 222.8 -48.8 L 222.8 -48.8 L 222.8 -48.8 Q 222.8 -46.2 221.5 -43.8 L 221.5 -43.8 L 221.5 -43.8 Q 220.3 -41.4 218 -39.8 L 218 -39.8 L 218 -39.8 Q 213.2 -36.2 205.6 -36.2 L 205.6 -36.2 L 205.6 -36.2 Q 201.4 -36.2 198.2 -38.4 L 198.2 -38.4 L 198.2 -38.4 Q 195 -40.5 195 -43 L 195 -43 L 195 -43 Q 195 -45.5 196.8 -46.9 L 196.8 -46.9 L 196.8 -46.9 Q 198.6 -48.4 201.3 -48.4 L 201.3 -48.4 L 201.3 -48.4 Q 204 -48.4 205.7 -47.4 L 205.7 -47.4 L 205.7 -47.4 Q 204.9 -45.3 204.9 -43.9 L 204.9 -43.9 L 204.9 -43.9 Q 204.9 -39.7 208.4 -39.7 L 208.4 -39.7 L 208.4 -39.7 Q 210 -39.7 211 -40.6 L 211 -40.6 L 211 -40.6 Q 212 -41.6 212 -43.2 L 212 -43.2 L 212 -43.2 Q 212 -46.5 206.5 -50 L 206.5 -50 L 206.5 -50 Q 202 -52.9 201 -54.1 L 201 -54.1 L 201 -54.1 Q 199.3 -56.1 199.3 -58.7 L 199.3 -58.7 L 199.3 -58.7 Q 199.3 -61.2 200.5 -63.7 L 200.5 -63.7 L 200.5 -63.7 Q 201.7 -66.1 204 -67.8 L 204 -67.8 L 204 -67.8 Q 208.6 -71.4 216.8 -71.4 L 216.8 -71.4 L 216.8 -71.4 Q 220.9 -71.4 223.4 -69.7 L 223.4 -69.7 L 223.4 -69.7 Q 225.8 -68.1 225.8 -65.3 L 225.8 -65.3 L 225.8 -65.3 Q 225.8 -62.4 224.1 -60.8 L 224.1 -60.8 L 224.1 -60.8 Q 222.5 -59.2 219.4 -59.2 L 219.4 -59.2 L 219.4 -59.2 Q 217.3 -59.2 216.2 -59.9 Z M 267.3 -58.1 L 280.2 -59.2 L 280.2 -59.2 Q 275.6 -49.1 275.6 -37.4 L 275.6 -37.4 L 275.6 -37.4 Q 273.9 -36.2 271.4 -36.2 L 271.4 -36.2 L 271.4 -36.2 Q 268.9 -36.2 267.3 -37.4 L 267.3 -37.4 L 267.3 -37.4 Q 265.7 -38.6 265.3 -39.8 L 265.3 -39.8 L 265.3 -39.8 Q 263.7 -38.1 261.1 -37.2 L 261.1 -37.2 L 261.1 -37.2 Q 258.5 -36.2 255.8 -36.2 L 255.8 -36.2 L 255.8 -36.2 Q 253 -36.2 250.6 -37.1 L 250.6 -37.1 L 250.6 -37.1 Q 248.2 -38 246.4 -40 L 246.4 -40 L 246.4 -40 Q 242.3 -44.3 242.3 -52.6 L 242.3 -52.6 L 242.3 -52.6 Q 242.3 -65.4 249.1 -73.1 L 249.1 -73.1 L 249.1 -73.1 Q 256.2 -81 268.7 -81 L 268.7 -81 L 268.7 -81 Q 277.3 -81 280.4 -76.5 L 280.4 -76.5 L 280.4 -76.5 Q 281.3 -75.1 281.3 -73.4 L 281.3 -73.4 L 281.3 -73.4 Q 281.3 -71.7 280.6 -70.3 L 280.6 -70.3 L 280.6 -70.3 Q 279.9 -68.8 278.7 -67.7 L 278.7 -67.7 L 278.7 -67.7 Q 276 -65.1 272.6 -65.1 L 272.6 -65.1 L 272.6 -65.1 Q 271.2 -65.1 269.9 -65.6 L 269.9 -65.6 L 269.9 -65.6 Q 270.2 -67.5 270.2 -69.7 L 270.2 -69.7 L 270.2 -69.7 Q 270.2 -72 270 -73 L 270 -73 L 270 -73 Q 269.9 -74 269.5 -74.9 L 269.5 -74.9 L 269.5 -74.9 Q 268.7 -76.6 266.8 -76.6 L 266.8 -76.6 L 266.8 -76.6 Q 265 -76.6 263 -74.6 L 263 -74.6 L 263 -74.6 Q 261 -72.7 259.4 -69.5 L 259.4 -69.5 L 259.4 -69.5 Q 255.9 -62.3 255.9 -53.7 L 255.9 -53.7 L 255.9 -53.7 Q 255.9 -49.7 257.4 -46.9 L 257.4 -46.9 L 257.4 -46.9 Q 259.1 -43.8 262 -43.8 L 262 -43.8 L 262 -43.8 Q 263 -43.8 264 -44.3 L 264 -44.3 L 264 -44.3 Q 264.9 -44.8 265.3 -45.2 L 265.3 -45.2 L 267.3 -58.1 Z M 286.2 -39.4 L 286.2 -39.4 L 286.2 -39.4 Q 284.7 -41.1 284 -43.7 L 284 -43.7 L 284 -43.7 Q 283.3 -46.3 283.3 -50.6 L 283.3 -50.6 L 283.3 -50.6 Q 283.3 -54.9 284.8 -58.8 L 284.8 -58.8 L 284.8 -58.8 Q 286.3 -62.7 288.9 -65.5 L 288.9 -65.5 L 288.9 -65.5 Q 294.5 -71.4 303.5 -71.4 L 303.5 -71.4 L 303.5 -71.4 Q 306.8 -71.4 309.2 -70.3 L 309.2 -70.3 L 320.1 -71.4 L 315.4 -46.4 L 315.4 -46.4 Q 315.2 -45.7 315.2 -44.3 L 315.2 -44.3 L 315.2 -44.3 Q 315.2 -42.9 316.1 -42 L 316.1 -42 L 316.1 -42 Q 316.9 -41.1 318.2 -40.9 L 318.2 -40.9 L 318.2 -40.9 Q 317.6 -38.8 315.2 -37.5 L 315.2 -37.5 L 315.2 -37.5 Q 312.9 -36.2 310.3 -36.2 L 310.3 -36.2 L 310.3 -36.2 Q 307.6 -36.2 305.9 -37.2 L 305.9 -37.2 L 305.9 -37.2 Q 304.1 -38.2 303.6 -39.8 L 303.6 -39.8 L 303.6 -39.8 Q 302.6 -38.2 300.4 -37.2 L 300.4 -37.2 L 300.4 -37.2 Q 298.2 -36.2 295.3 -36.2 L 295.3 -36.2 L 295.3 -36.2 Q 292.4 -36.2 290 -37 L 290 -37 L 290 -37 Q 287.7 -37.7 286.2 -39.4 Z M 299.7 -65.4 L 299.7 -65.4 L 299.7 -65.4 Q 298.9 -64.2 298.3 -62.3 L 298.3 -62.3 L 298.3 -62.3 Q 297.7 -60.3 296.6 -55.1 L 296.6 -55.1 L 296.6 -55.1 Q 295.5 -49.9 295.5 -46.2 L 295.5 -46.2 L 295.5 -46.2 Q 295.5 -42.5 296.1 -41.4 L 296.1 -41.4 L 296.1 -41.4 Q 296.7 -40.3 297.7 -40.3 L 297.7 -40.3 L 297.7 -40.3 Q 299.8 -40.3 301.3 -42.2 L 301.3 -42.2 L 301.3 -42.2 Q 302.8 -44.2 303.3 -47.7 L 303.3 -47.7 L 306.7 -66.4 L 306.7 -66.4 Q 305.4 -67.6 303.8 -67.6 L 303.8 -67.6 L 303.8 -67.6 Q 302.3 -67.6 301.3 -67 L 301.3 -67 L 301.3 -67 Q 300.4 -66.5 299.7 -65.4 Z M 338.9 -41 L 338.9 -41 L 338.9 -41 Q 336.9 -36.2 330.5 -36.2 L 330.5 -36.2 L 330.5 -36.2 Q 327.3 -36.2 325.3 -38.4 L 325.3 -38.4 L 325.3 -38.4 Q 323.6 -40.3 323.6 -42.4 L 323.6 -42.4 L 323.6 -42.4 Q 323.6 -47.2 325.9 -57.7 L 325.9 -57.7 L 330.5 -82.3 L 343.5 -83.6 L 337.3 -51.2 L 337.3 -51.2 Q 336.2 -46.4 336.2 -44.8 L 336.2 -44.8 L 336.2 -44.8 Q 336.2 -41.1 338.9 -41 Z M 359.6 -41 L 359.6 -41 L 359.6 -41 Q 357.6 -36.2 351.3 -36.2 L 351.3 -36.2 L 351.3 -36.2 Q 348.1 -36.2 346 -38.4 L 346 -38.4 L 346 -38.4 Q 344.4 -40.3 344.4 -42.4 L 344.4 -42.4 L 344.4 -42.4 Q 344.4 -47.2 346.6 -57.7 L 346.6 -57.7 L 351.3 -82.3 L 364.3 -83.6 L 358.1 -51.2 L 358.1 -51.2 Q 357 -46.4 357 -44.8 L 357 -44.8 L 357 -44.8 Q 357 -41.1 359.6 -41 Z M 391 -48.3 L 391 -48.3 L 391 -48.3 Q 392.6 -47.2 392.6 -44.8 L 392.6 -44.8 L 392.6 -44.8 Q 392.6 -42.4 391.3 -40.9 L 391.3 -40.9 L 391.3 -40.9 Q 390.1 -39.3 388.1 -38.3 L 388.1 -38.3 L 388.1 -38.3 Q 384.1 -36.2 379.6 -36.2 L 379.6 -36.2 L 379.6 -36.2 Q 375.2 -36.2 372.6 -37.2 L 372.6 -37.2 L 372.6 -37.2 Q 370 -38.1 368.3 -39.9 L 368.3 -39.9 L 368.3 -39.9 Q 364.9 -43.3 364.9 -49.5 L 364.9 -49.5 L 364.9 -49.5 Q 364.9 -59.2 370.2 -65.1 L 370.2 -65.1 L 370.2 -65.1 Q 375.8 -71.4 385.6 -71.4 L 385.6 -71.4 L 385.6 -71.4 Q 391.7 -71.4 394.7 -68.8 L 394.7 -68.8 L 394.7 -68.8 Q 396.9 -66.9 396.9 -63.8 L 396.9 -63.8 L 396.9 -63.8 Q 396.9 -52.5 377.5 -52.5 L 377.5 -52.5 L 377.5 -52.5 Q 377.2 -50.9 377.2 -49.4 L 377.2 -49.4 L 377.2 -49.4 Q 377.2 -46.5 378.5 -45.4 L 378.5 -45.4 L 378.5 -45.4 Q 379.8 -44.3 382.3 -44.3 L 382.3 -44.3 L 382.3 -44.3 Q 384.7 -44.3 387.3 -45.4 L 387.3 -45.4 L 387.3 -45.4 Q 389.9 -46.5 391 -48.3 Z M 377.9 -55.3 L 377.9 -55.3 L 377.9 -55.3 Q 382.5 -55.3 385.1 -58.1 L 385.1 -58.1 L 385.1 -58.1 Q 387.7 -60.8 387.7 -65.1 L 387.7 -65.1 L 387.7 -65.1 Q 387.7 -66.5 387.2 -67.3 L 387.2 -67.3 L 387.2 -67.3 Q 386.6 -68.1 385.5 -68.1 L 385.5 -68.1 L 385.5 -68.1 Q 384.4 -68.1 383.5 -67.7 L 383.5 -67.7 L 383.5 -67.7 Q 382.6 -67.3 381.6 -65.9 L 381.6 -65.9 L 381.6 -65.9 Q 379.3 -62.7 377.9 -55.3 Z M 419.1 -55.5 L 419.1 -55.5 L 419.1 -55.5 Q 421.4 -59.6 421.4 -63.7 L 421.4 -63.7 L 421.4 -63.7 Q 421.4 -66.5 419.4 -66.5 L 419.4 -66.5 L 419.4 -66.5 Q 417.9 -66.5 416.3 -63.8 L 416.3 -63.8 L 416.3 -63.8 Q 414.6 -61.2 414.1 -57.8 L 414.1 -57.8 L 410.8 -37.5 L 397.6 -36.2 L 404.1 -70.1 L 414.6 -71.4 L 413.5 -64.9 L 413.5 -64.9 Q 416.6 -71.4 423.7 -71.4 L 423.7 -71.4 L 423.7 -71.4 Q 427.4 -71.4 429.4 -69.5 L 429.4 -69.5 L 429.4 -69.5 Q 431.4 -67.6 431.4 -63.6 L 431.4 -63.6 L 431.4 -63.6 Q 431.4 -59.7 428.8 -57.2 L 428.8 -57.2 L 428.8 -57.2 Q 426.2 -54.7 421.8 -54.7 L 421.8 -54.7 L 421.8 -54.7 Q 419.9 -54.7 419.1 -55.5 Z M 452.8 -44.7 L 452.8 -44.7 L 452.8 -44.7 Q 449.5 -41.3 443.4 -41.3 L 443.4 -41.3 L 443.4 -41.3 Q 435.8 -41.3 434.2 -46.8 L 434.2 -46.8 L 434.2 -46.8 Q 433.7 -48.5 433.7 -50.3 L 433.7 -50.3 L 433.7 -50.3 Q 433.7 -52.2 434 -54.1 L 434 -54.1 L 437 -70.1 L 450 -71.4 L 446.5 -52.8 L 446.5 -52.8 Q 446.4 -51.9 446.2 -51 L 446.2 -51 L 446.2 -51 Q 446 -50.1 446 -49.2 L 446 -49.2 L 446 -49.2 Q 446 -48.3 446.3 -47.7 L 446.3 -47.7 L 446.3 -47.7 Q 446.6 -47.1 447.1 -46.7 L 447.1 -46.7 L 447.1 -46.7 Q 447.9 -46.2 449.2 -46.2 L 449.2 -46.2 L 449.2 -46.2 Q 450.6 -46.2 451.8 -47.8 L 451.8 -47.8 L 451.8 -47.8 Q 453 -49.5 453.6 -52.4 L 453.6 -52.4 L 457.1 -70.1 L 469.7 -71.4 L 464.9 -46.2 L 464.9 -46.2 Q 462.5 -34 457.7 -29.1 L 457.7 -29.1 L 457.7 -29.1 Q 455.2 -26.6 451.9 -25.6 L 451.9 -25.6 L 451.9 -25.6 Q 448.7 -24.6 444.5 -24.6 L 444.5 -24.6 L 444.5 -24.6 Q 437.8 -24.6 434 -26.7 L 434 -26.7 L 434 -26.7 Q 430.1 -28.8 430.1 -32.4 L 430.1 -32.4 L 430.1 -32.4 Q 430.1 -35 432.1 -36.5 L 432.1 -36.5 L 432.1 -36.5 Q 434.1 -38 437.2 -38 L 437.2 -38 L 437.2 -38 Q 439.9 -38 441.9 -36.8 L 441.9 -36.8 L 441.9 -36.8 Q 443.1 -36.1 443.7 -35.2 L 443.7 -35.2 L 443.7 -35.2 Q 442.2 -34 442.2 -31.8 L 442.2 -31.8 L 442.2 -31.8 Q 442.2 -29 444.8 -29 L 444.8 -29 L 444.8 -29 Q 449 -29 451.4 -38.8 L 451.4 -38.8 L 451.4 -38.8 Q 452.1 -41.6 452.8 -44.7 Z" fill="url(#editing-gradient-gradient)"></path></g></g><style>text {
  font-size: 64px;
  font-family: Arial Black;
  dominant-baseline: central;
  text-anchor: middle;
}</style></svg>