<svg width="657.9px" height="122px" xmlns="http://www.w3.org/2000/svg" viewBox="-78.96251220703124 13.989306640625003 657.9250244140625 122.02138671875" style="background: rgba(0, 0, 0, 0)" preserveAspectRatio="xMidYMid"><defs><linearGradient id="editing-gradient-gradient" x1="0" x2="1" y1="0.5" y2="0.5" gradientUnits="objectBoundingBox"><stop offset="0" stop-color="#ff00ff"></stop><stop offset="1" stop-color="#00ffff"></stop></linearGradient></defs><g><g transform="matrix(1.3,0,0,1.4,-52.5,153.5)"><path d="M 12.7 -35.9 L -1.3 -35.9 L 6.8 -78.2 L 20.9 -78.2 L 12.7 -35.9 Z M 68.4 -34.7 L 68.4 -34.7 L 68.4 -34.7 Q 60.7 -34.7 60.7 -40.7 L 60.7 -40.7 L 60.7 -40.7 Q 60.7 -43.3 61.8 -48.4 L 61.8 -48.4 L 61.8 -48.4 Q 62.9 -53.5 63.3 -55.5 L 63.3 -55.5 L 63.3 -55.5 Q 64.2 -60.2 64.2 -61.7 L 64.2 -61.7 L 64.2 -61.7 Q 64.2 -64.9 61.7 -64.9 L 61.7 -64.9 L 61.7 -64.9 Q 60.1 -64.9 58.6 -62.7 L 58.6 -62.7 L 58.6 -62.7 Q 57.1 -60.5 56.4 -56.1 L 56.4 -56.1 L 52.4 -35.9 L 39.9 -34.7 L 43.4 -52.1 L 43.4 -52.1 Q 44 -55 44.5 -58.2 L 44.5 -58.2 L 44.5 -58.2 Q 45 -61.5 45 -62 L 45 -62 L 45 -62 Q 45 -64.9 42.8 -64.9 L 42.8 -64.9 L 42.8 -64.9 Q 41.3 -64.9 39.7 -62.8 L 39.7 -62.8 L 39.7 -62.8 Q 38.1 -60.6 37.2 -56.1 L 37.2 -56.1 L 33.3 -35.9 L 20.7 -34.7 L 27.4 -68.6 L 37.9 -69.9 L 36.8 -63.4 L 36.8 -63.4 Q 38.5 -66.9 41.5 -68.4 L 41.5 -68.4 L 41.5 -68.4 Q 44.6 -69.9 49.4 -69.9 L 49.4 -69.9 L 49.4 -69.9 Q 52.1 -69.9 53.9 -68.5 L 53.9 -68.5 L 53.9 -68.5 Q 55.7 -67.2 56.3 -65 L 56.3 -65 L 56.3 -65 Q 57.4 -67.2 60.2 -68.6 L 60.2 -68.6 L 60.2 -68.6 Q 63 -69.9 66.4 -69.9 L 66.4 -69.9 L 66.4 -69.9 Q 69.8 -69.9 71.5 -69.1 L 71.5 -69.1 L 71.5 -69.1 Q 73.2 -68.4 74.2 -67.2 L 74.2 -67.2 L 74.2 -67.2 Q 76 -64.9 76 -60.8 L 76 -60.8 L 76 -60.8 Q 76 -56.8 74.2 -48.4 L 74.2 -48.4 L 74.2 -48.4 Q 73.3 -44.3 73.3 -42.8 L 73.3 -42.8 L 73.3 -42.8 Q 73.3 -41.3 74.2 -40.4 L 74.2 -40.4 L 74.2 -40.4 Q 75.1 -39.5 76.3 -39.4 L 76.3 -39.4 L 76.3 -39.4 Q 75.7 -37.2 73.5 -35.9 L 73.5 -35.9 L 73.5 -35.9 Q 71.3 -34.7 68.4 -34.7 Z M 84.1 -37.9 L 84.1 -37.9 L 84.1 -37.9 Q 82.5 -39.5 81.9 -42.2 L 81.9 -42.2 L 81.9 -42.2 Q 81.2 -44.8 81.2 -49.1 L 81.2 -49.1 L 81.2 -49.1 Q 81.2 -53.4 82.7 -57.3 L 82.7 -57.3 L 82.7 -57.3 Q 84.1 -61.2 86.8 -64 L 86.8 -64 L 86.8 -64 Q 92.3 -69.9 101.4 -69.9 L 101.4 -69.9 L 101.4 -69.9 Q 104.7 -69.9 107.1 -68.8 L 107.1 -68.8 L 118 -69.9 L 113.3 -44.9 L 113.3 -44.9 Q 113.1 -44.1 113.1 -42.7 L 113.1 -42.7 L 113.1 -42.7 Q 113.1 -41.3 113.9 -40.4 L 113.9 -40.4 L 113.9 -40.4 Q 114.8 -39.5 116.1 -39.4 L 116.1 -39.4 L 116.1 -39.4 Q 115.4 -37.2 113.1 -35.9 L 113.1 -35.9 L 113.1 -35.9 Q 110.8 -34.7 108.1 -34.7 L 108.1 -34.7 L 108.1 -34.7 Q 105.5 -34.7 103.8 -35.7 L 103.8 -35.7 L 103.8 -35.7 Q 102 -36.6 101.5 -38.3 L 101.5 -38.3 L 101.5 -38.3 Q 100.5 -36.7 98.3 -35.7 L 98.3 -35.7 L 98.3 -35.7 Q 96.1 -34.7 93.2 -34.7 L 93.2 -34.7 L 93.2 -34.7 Q 90.3 -34.7 87.9 -35.4 L 87.9 -35.4 L 87.9 -35.4 Q 85.6 -36.2 84.1 -37.9 Z M 97.6 -63.8 L 97.6 -63.8 L 97.6 -63.8 Q 96.8 -62.7 96.2 -60.7 L 96.2 -60.7 L 96.2 -60.7 Q 95.5 -58.8 94.5 -53.6 L 94.5 -53.6 L 94.5 -53.6 Q 93.4 -48.4 93.4 -44.6 L 93.4 -44.6 L 93.4 -44.6 Q 93.4 -40.9 94 -39.8 L 94 -39.8 L 94 -39.8 Q 94.6 -38.8 95.6 -38.8 L 95.6 -38.8 L 95.6 -38.8 Q 97.7 -38.8 99.2 -40.7 L 99.2 -40.7 L 99.2 -40.7 Q 100.7 -42.7 101.2 -46.1 L 101.2 -46.1 L 104.6 -64.9 L 104.6 -64.9 Q 103.3 -66 101.7 -66 L 101.7 -66 L 101.7 -66 Q 100.1 -66 99.2 -65.5 L 99.2 -65.5 L 99.2 -65.5 Q 98.3 -65 97.6 -63.8 Z M 125.7 -62.7 L 125.7 -62.7 L 125.7 -62.7 Q 127.9 -65.8 131.2 -67.8 L 131.2 -67.8 L 131.2 -67.8 Q 134.5 -69.9 138.5 -69.9 L 138.5 -69.9 L 138.5 -69.9 Q 142.6 -69.9 144.5 -68.6 L 144.5 -68.6 L 157 -69.9 L 152.7 -45.3 L 152.7 -45.3 Q 150.5 -32.7 145.7 -27.8 L 145.7 -27.8 L 145.7 -27.8 Q 141.2 -23.1 132.3 -23.1 L 132.3 -23.1 L 132.3 -23.1 Q 125.6 -23.1 121.8 -25.3 L 121.8 -25.3 L 121.8 -25.3 Q 117.9 -27.4 117.9 -30.9 L 117.9 -30.9 L 117.9 -30.9 Q 117.9 -33.5 119.9 -35 L 119.9 -35 L 119.9 -35 Q 121.9 -36.5 125 -36.5 L 125 -36.5 L 125 -36.5 Q 127.7 -36.5 129.7 -35.3 L 129.7 -35.3 L 129.7 -35.3 Q 130.9 -34.7 131.5 -33.8 L 131.5 -33.8 L 131.5 -33.8 Q 130 -32.5 130 -30.4 L 130 -30.4 L 130 -30.4 Q 130 -27.6 132.6 -27.6 L 132.6 -27.6 L 132.6 -27.6 Q 136.9 -27.6 139.3 -37.7 L 139.3 -37.7 L 139.3 -37.7 Q 140 -40.5 140.6 -43.2 L 140.6 -43.2 L 140.6 -43.2 Q 137.7 -39.7 131.2 -39.7 L 131.2 -39.7 L 131.2 -39.7 Q 126.6 -39.7 124 -41.9 L 124 -41.9 L 124 -41.9 Q 121.4 -44.1 121.4 -49.2 L 121.4 -49.2 L 121.4 -49.2 Q 121.4 -52.4 122.5 -56 L 122.5 -56 L 122.5 -56 Q 123.6 -59.6 125.7 -62.7 Z M 134.1 -49 L 134.1 -49 L 134.1 -49 Q 134.1 -44.6 136.3 -44.6 L 136.3 -44.6 L 136.3 -44.6 Q 137.8 -44.6 139.3 -46.3 L 139.3 -46.3 L 139.3 -46.3 Q 140.5 -47.7 140.9 -49.6 L 140.9 -49.6 L 144.2 -66.1 L 144.2 -66.1 Q 143.9 -66.2 143.5 -66.3 L 143.5 -66.3 L 143.5 -66.3 Q 142.9 -66.5 142.1 -66.5 L 142.1 -66.5 L 142.1 -66.5 Q 138.2 -66.5 135.9 -60.1 L 135.9 -60.1 L 135.9 -60.1 Q 134.1 -55.1 134.1 -49 Z M 185.5 -46.8 L 185.5 -46.8 L 185.5 -46.8 Q 187.1 -45.7 187.1 -43.3 L 187.1 -43.3 L 187.1 -43.3 Q 187.1 -40.9 185.8 -39.3 L 185.8 -39.3 L 185.8 -39.3 Q 184.6 -37.8 182.6 -36.8 L 182.6 -36.8 L 182.6 -36.8 Q 178.5 -34.7 174.1 -34.7 L 174.1 -34.7 L 174.1 -34.7 Q 169.7 -34.7 167.1 -35.6 L 167.1 -35.6 L 167.1 -35.6 Q 164.5 -36.6 162.8 -38.4 L 162.8 -38.4 L 162.8 -38.4 Q 159.4 -41.8 159.4 -48 L 159.4 -48 L 159.4 -48 Q 159.4 -57.6 164.7 -63.5 L 164.7 -63.5 L 164.7 -63.5 Q 170.3 -69.9 180.1 -69.9 L 180.1 -69.9 L 180.1 -69.9 Q 186.2 -69.9 189.2 -67.3 L 189.2 -67.3 L 189.2 -67.3 Q 191.4 -65.4 191.4 -62.2 L 191.4 -62.2 L 191.4 -62.2 Q 191.4 -51 172 -51 L 172 -51 L 172 -51 Q 171.7 -49.3 171.7 -47.9 L 171.7 -47.9 L 171.7 -47.9 Q 171.7 -45 173 -43.8 L 173 -43.8 L 173 -43.8 Q 174.3 -42.7 176.8 -42.7 L 176.8 -42.7 L 176.8 -42.7 Q 179.2 -42.7 181.8 -43.8 L 181.8 -43.8 L 181.8 -43.8 Q 184.4 -45 185.5 -46.8 Z M 172.4 -53.7 L 172.4 -53.7 L 172.4 -53.7 Q 176.9 -53.7 179.6 -56.6 L 179.6 -56.6 L 179.6 -56.6 Q 182.2 -59.2 182.2 -63.5 L 182.2 -63.5 L 182.2 -63.5 Q 182.2 -65 181.7 -65.8 L 181.7 -65.8 L 181.7 -65.8 Q 181.1 -66.6 180 -66.6 L 180 -66.6 L 180 -66.6 Q 178.9 -66.6 178 -66.2 L 178 -66.2 L 178 -66.2 Q 177.1 -65.8 176.1 -64.4 L 176.1 -64.4 L 176.1 -64.4 Q 173.7 -61.2 172.4 -53.7 Z M 212.7 -58.4 L 212.7 -58.4 L 212.7 -58.4 Q 213.6 -60.8 213.6 -62.8 L 213.6 -62.8 L 213.6 -62.8 Q 213.6 -66.6 210.5 -66.6 L 210.5 -66.6 L 210.5 -66.6 Q 208.9 -66.6 207.6 -65.2 L 207.6 -65.2 L 207.6 -65.2 Q 206.3 -63.7 206.3 -61.9 L 206.3 -61.9 L 206.3 -61.9 Q 206.3 -60.6 207.3 -59.6 L 207.3 -59.6 L 207.3 -59.6 Q 208.8 -58.2 212.6 -55.9 L 212.6 -55.9 L 212.6 -55.9 Q 216.4 -53.6 217.8 -51.7 L 217.8 -51.7 L 217.8 -51.7 Q 219.3 -49.8 219.3 -47.2 L 219.3 -47.2 L 219.3 -47.2 Q 219.3 -44.6 218 -42.3 L 218 -42.3 L 218 -42.3 Q 216.8 -39.9 214.5 -38.2 L 214.5 -38.2 L 214.5 -38.2 Q 209.7 -34.7 202 -34.7 L 202 -34.7 L 202 -34.7 Q 197.9 -34.7 194.7 -36.8 L 194.7 -36.8 L 194.7 -36.8 Q 191.5 -39 191.5 -41.4 L 191.5 -41.4 L 191.5 -41.4 Q 191.5 -43.9 193.3 -45.4 L 193.3 -45.4 L 193.3 -45.4 Q 195.1 -46.9 197.8 -46.9 L 197.8 -46.9 L 197.8 -46.9 Q 200.5 -46.9 202.2 -45.9 L 202.2 -45.9 L 202.2 -45.9 Q 201.3 -43.8 201.3 -42.3 L 201.3 -42.3 L 201.3 -42.3 Q 201.3 -38.1 204.9 -38.1 L 204.9 -38.1 L 204.9 -38.1 Q 206.5 -38.1 207.5 -39.1 L 207.5 -39.1 L 207.5 -39.1 Q 208.5 -40 208.5 -41.7 L 208.5 -41.7 L 208.5 -41.7 Q 208.5 -45 203 -48.4 L 203 -48.4 L 203 -48.4 Q 198.5 -51.4 197.5 -52.5 L 197.5 -52.5 L 197.5 -52.5 Q 195.8 -54.6 195.8 -57.1 L 195.8 -57.1 L 195.8 -57.1 Q 195.8 -59.7 197 -62.1 L 197 -62.1 L 197 -62.1 Q 198.2 -64.6 200.4 -66.3 L 200.4 -66.3 L 200.4 -66.3 Q 205.1 -69.9 213.2 -69.9 L 213.2 -69.9 L 213.2 -69.9 Q 217.4 -69.9 219.9 -68.2 L 219.9 -68.2 L 219.9 -68.2 Q 222.3 -66.5 222.3 -63.7 L 222.3 -63.7 L 222.3 -63.7 Q 222.3 -60.9 220.6 -59.3 L 220.6 -59.3 L 220.6 -59.3 Q 218.9 -57.7 215.9 -57.7 L 215.9 -57.7 L 215.9 -57.7 Q 213.7 -57.7 212.7 -58.4 Z M 263.8 -56.6 L 276.7 -57.7 L 276.7 -57.7 Q 272.1 -47.6 272.1 -35.9 L 272.1 -35.9 L 272.1 -35.9 Q 270.4 -34.7 267.9 -34.7 L 267.9 -34.7 L 267.9 -34.7 Q 265.3 -34.7 263.7 -35.8 L 263.7 -35.8 L 263.7 -35.8 Q 262.1 -37 261.8 -38.2 L 261.8 -38.2 L 261.8 -38.2 Q 260.2 -36.6 257.6 -35.6 L 257.6 -35.6 L 257.6 -35.6 Q 255 -34.7 252.3 -34.7 L 252.3 -34.7 L 252.3 -34.7 Q 249.5 -34.7 247.1 -35.6 L 247.1 -35.6 L 247.1 -35.6 Q 244.7 -36.5 242.9 -38.4 L 242.9 -38.4 L 242.9 -38.4 Q 238.8 -42.8 238.8 -51 L 238.8 -51 L 238.8 -51 Q 238.8 -63.8 245.6 -71.5 L 245.6 -71.5 L 245.6 -71.5 Q 252.7 -79.5 265.1 -79.5 L 265.1 -79.5 L 265.1 -79.5 Q 273.8 -79.5 276.9 -75 L 276.9 -75 L 276.9 -75 Q 277.8 -73.6 277.8 -71.9 L 277.8 -71.9 L 277.8 -71.9 Q 277.8 -70.2 277.1 -68.7 L 277.1 -68.7 L 277.1 -68.7 Q 276.3 -67.3 275.2 -66.2 L 275.2 -66.2 L 275.2 -66.2 Q 272.4 -63.6 269 -63.6 L 269 -63.6 L 269 -63.6 Q 267.7 -63.6 266.4 -64 L 266.4 -64 L 266.4 -64 Q 266.7 -66 266.7 -68.2 L 266.7 -68.2 L 266.7 -68.2 Q 266.7 -70.4 266.5 -71.5 L 266.5 -71.5 L 266.5 -71.5 Q 266.4 -72.5 266 -73.3 L 266 -73.3 L 266 -73.3 Q 265.1 -75 263.3 -75 L 263.3 -75 L 263.3 -75 Q 261.5 -75 259.5 -73.1 L 259.5 -73.1 L 259.5 -73.1 Q 257.5 -71.1 255.9 -67.9 L 255.9 -67.9 L 255.9 -67.9 Q 252.3 -60.8 252.3 -52.1 L 252.3 -52.1 L 252.3 -52.1 Q 252.3 -48.2 253.9 -45.4 L 253.9 -45.4 L 253.9 -45.4 Q 255.5 -42.3 258.5 -42.3 L 258.5 -42.3 L 258.5 -42.3 Q 259.5 -42.3 260.4 -42.8 L 260.4 -42.8 L 260.4 -42.8 Q 261.4 -43.3 261.7 -43.7 L 261.7 -43.7 L 263.8 -56.6 Z M 282.6 -37.9 L 282.6 -37.9 L 282.6 -37.9 Q 281.1 -39.5 280.5 -42.2 L 280.5 -42.2 L 280.5 -42.2 Q 279.8 -44.8 279.8 -49.1 L 279.8 -49.1 L 279.8 -49.1 Q 279.8 -53.4 281.3 -57.3 L 281.3 -57.3 L 281.3 -57.3 Q 282.7 -61.2 285.4 -64 L 285.4 -64 L 285.4 -64 Q 290.9 -69.9 300 -69.9 L 300 -69.9 L 300 -69.9 Q 303.3 -69.9 305.7 -68.8 L 305.7 -68.8 L 316.6 -69.9 L 311.9 -44.9 L 311.9 -44.9 Q 311.7 -44.1 311.7 -42.7 L 311.7 -42.7 L 311.7 -42.7 Q 311.7 -41.3 312.5 -40.4 L 312.5 -40.4 L 312.5 -40.4 Q 313.4 -39.5 314.7 -39.4 L 314.7 -39.4 L 314.7 -39.4 Q 314 -37.2 311.7 -35.9 L 311.7 -35.9 L 311.7 -35.9 Q 309.4 -34.7 306.7 -34.7 L 306.7 -34.7 L 306.7 -34.7 Q 304.1 -34.7 302.4 -35.7 L 302.4 -35.7 L 302.4 -35.7 Q 300.6 -36.6 300.1 -38.3 L 300.1 -38.3 L 300.1 -38.3 Q 299.1 -36.7 296.9 -35.7 L 296.9 -35.7 L 296.9 -35.7 Q 294.7 -34.7 291.8 -34.7 L 291.8 -34.7 L 291.8 -34.7 Q 288.9 -34.7 286.5 -35.4 L 286.5 -35.4 L 286.5 -35.4 Q 284.1 -36.2 282.6 -37.9 Z M 296.1 -63.8 L 296.1 -63.8 L 296.1 -63.8 Q 295.4 -62.7 294.8 -60.7 L 294.8 -60.7 L 294.8 -60.7 Q 294.1 -58.8 293.1 -53.6 L 293.1 -53.6 L 293.1 -53.6 Q 292 -48.4 292 -44.6 L 292 -44.6 L 292 -44.6 Q 292 -40.9 292.6 -39.8 L 292.6 -39.8 L 292.6 -39.8 Q 293.2 -38.8 294.2 -38.8 L 294.2 -38.8 L 294.2 -38.8 Q 296.2 -38.8 297.7 -40.7 L 297.7 -40.7 L 297.7 -40.7 Q 299.3 -42.7 299.8 -46.1 L 299.8 -46.1 L 303.2 -64.9 L 303.2 -64.9 Q 301.9 -66 300.3 -66 L 300.3 -66 L 300.3 -66 Q 298.7 -66 297.8 -65.5 L 297.8 -65.5 L 297.8 -65.5 Q 296.9 -65 296.1 -63.8 Z M 335.3 -39.5 L 335.3 -39.5 L 335.3 -39.5 Q 333.4 -34.7 327 -34.7 L 327 -34.7 L 327 -34.7 Q 323.8 -34.7 321.8 -36.9 L 321.8 -36.9 L 321.8 -36.9 Q 320.1 -38.8 320.1 -40.9 L 320.1 -40.9 L 320.1 -40.9 Q 320.1 -45.7 322.4 -56.2 L 322.4 -56.2 L 327 -80.7 L 340 -82 L 333.8 -49.6 L 333.8 -49.6 Q 332.7 -44.9 332.7 -43.2 L 332.7 -43.2 L 332.7 -43.2 Q 332.7 -39.6 335.3 -39.5 Z M 356.1 -39.5 L 356.1 -39.5 L 356.1 -39.5 Q 354.1 -34.7 347.8 -34.7 L 347.8 -34.7 L 347.8 -34.7 Q 344.6 -34.7 342.5 -36.9 L 342.5 -36.9 L 342.5 -36.9 Q 340.9 -38.8 340.9 -40.9 L 340.9 -40.9 L 340.9 -40.9 Q 340.9 -45.7 343.1 -56.2 L 343.1 -56.2 L 347.8 -80.7 L 360.8 -82 L 354.5 -49.6 L 354.5 -49.6 Q 353.5 -44.9 353.5 -43.2 L 353.5 -43.2 L 353.5 -43.2 Q 353.5 -39.6 356.1 -39.5 Z M 387.4 -46.8 L 387.4 -46.8 L 387.4 -46.8 Q 389 -45.7 389 -43.3 L 389 -43.3 L 389 -43.3 Q 389 -40.9 387.8 -39.3 L 387.8 -39.3 L 387.8 -39.3 Q 386.6 -37.8 384.6 -36.8 L 384.6 -36.8 L 384.6 -36.8 Q 380.5 -34.7 376.1 -34.7 L 376.1 -34.7 L 376.1 -34.7 Q 371.7 -34.7 369.1 -35.6 L 369.1 -35.6 L 369.1 -35.6 Q 366.5 -36.6 364.8 -38.4 L 364.8 -38.4 L 364.8 -38.4 Q 361.4 -41.8 361.4 -48 L 361.4 -48 L 361.4 -48 Q 361.4 -57.6 366.6 -63.5 L 366.6 -63.5 L 366.6 -63.5 Q 372.3 -69.9 382.1 -69.9 L 382.1 -69.9 L 382.1 -69.9 Q 388.1 -69.9 391.2 -67.3 L 391.2 -67.3 L 391.2 -67.3 Q 393.4 -65.4 393.4 -62.2 L 393.4 -62.2 L 393.4 -62.2 Q 393.4 -51 373.9 -51 L 373.9 -51 L 373.9 -51 Q 373.7 -49.3 373.7 -47.9 L 373.7 -47.9 L 373.7 -47.9 Q 373.7 -45 375 -43.8 L 375 -43.8 L 375 -43.8 Q 376.3 -42.7 378.7 -42.7 L 378.7 -42.7 L 378.7 -42.7 Q 381.2 -42.7 383.8 -43.8 L 383.8 -43.8 L 383.8 -43.8 Q 386.4 -45 387.4 -46.8 Z M 374.4 -53.7 L 374.4 -53.7 L 374.4 -53.7 Q 378.9 -53.7 381.6 -56.6 L 381.6 -56.6 L 381.6 -56.6 Q 384.2 -59.2 384.2 -63.5 L 384.2 -63.5 L 384.2 -63.5 Q 384.2 -65 383.6 -65.8 L 383.6 -65.8 L 383.6 -65.8 Q 383.1 -66.6 382 -66.6 L 382 -66.6 L 382 -66.6 Q 380.9 -66.6 380 -66.2 L 380 -66.2 L 380 -66.2 Q 379.1 -65.8 378.1 -64.4 L 378.1 -64.4 L 378.1 -64.4 Q 375.7 -61.2 374.4 -53.7 Z M 415.6 -53.9 L 415.6 -53.9 L 415.6 -53.9 Q 417.9 -58 417.9 -62.2 L 417.9 -62.2 L 417.9 -62.2 Q 417.9 -64.9 415.9 -64.9 L 415.9 -64.9 L 415.9 -64.9 Q 414.4 -64.9 412.8 -62.3 L 412.8 -62.3 L 412.8 -62.3 Q 411.1 -59.7 410.6 -56.3 L 410.6 -56.3 L 407.3 -35.9 L 394 -34.7 L 400.6 -68.6 L 411.1 -69.9 L 410 -63.4 L 410 -63.4 Q 413.1 -69.9 420.1 -69.9 L 420.1 -69.9 L 420.1 -69.9 Q 423.9 -69.9 425.9 -67.9 L 425.9 -67.9 L 425.9 -67.9 Q 427.9 -66 427.9 -62.1 L 427.9 -62.1 L 427.9 -62.1 Q 427.9 -58.2 425.3 -55.7 L 425.3 -55.7 L 425.3 -55.7 Q 422.7 -53.2 418.3 -53.2 L 418.3 -53.2 L 418.3 -53.2 Q 416.4 -53.2 415.6 -53.9 Z M 449.3 -43.2 L 449.3 -43.2 L 449.3 -43.2 Q 445.9 -39.7 439.9 -39.7 L 439.9 -39.7 L 439.9 -39.7 Q 432.2 -39.7 430.6 -45.3 L 430.6 -45.3 L 430.6 -45.3 Q 430.1 -47 430.1 -48.8 L 430.1 -48.8 L 430.1 -48.8 Q 430.1 -50.7 430.5 -52.6 L 430.5 -52.6 L 433.5 -68.6 L 446.5 -69.9 L 443 -51.2 L 443 -51.2 Q 442.9 -50.4 442.7 -49.5 L 442.7 -49.5 L 442.7 -49.5 Q 442.5 -48.6 442.5 -47.7 L 442.5 -47.7 L 442.5 -47.7 Q 442.5 -46.8 442.8 -46.2 L 442.8 -46.2 L 442.8 -46.2 Q 443.1 -45.5 443.6 -45.2 L 443.6 -45.2 L 443.6 -45.2 Q 444.3 -44.6 445.7 -44.6 L 445.7 -44.6 L 445.7 -44.6 Q 447.1 -44.6 448.3 -46.3 L 448.3 -46.3 L 448.3 -46.3 Q 449.5 -48 450 -50.9 L 450 -50.9 L 453.6 -68.6 L 466.2 -69.9 L 461.4 -44.7 L 461.4 -44.7 Q 459 -32.4 454.1 -27.6 L 454.1 -27.6 L 454.1 -27.6 Q 451.6 -25.1 448.4 -24.1 L 448.4 -24.1 L 448.4 -24.1 Q 445.2 -23.1 441 -23.1 L 441 -23.1 L 441 -23.1 Q 434.3 -23.1 430.5 -25.2 L 430.5 -25.2 L 430.5 -25.2 Q 426.6 -27.3 426.6 -30.8 L 426.6 -30.8 L 426.6 -30.8 Q 426.6 -33.4 428.6 -35 L 428.6 -35 L 428.6 -35 Q 430.6 -36.5 433.7 -36.5 L 433.7 -36.5 L 433.7 -36.5 Q 436.3 -36.5 438.4 -35.3 L 438.4 -35.3 L 438.4 -35.3 Q 439.6 -34.6 440.2 -33.7 L 440.2 -33.7 L 440.2 -33.7 Q 438.7 -32.4 438.7 -30.3 L 438.7 -30.3 L 438.7 -30.3 Q 438.7 -27.5 441.3 -27.5 L 441.3 -27.5 L 441.3 -27.5 Q 445.5 -27.5 447.9 -37.2 L 447.9 -37.2 L 447.9 -37.2 Q 448.6 -40.1 449.3 -43.2 Z" fill="url(#editing-gradient-gradient)"></path></g></g><style>text {
  font-size: 64px;
  font-family: Arial Black;
  dominant-baseline: central;
  text-anchor: middle;
}</style></svg>