<svg width="657.9px" height="122px" xmlns="http://www.w3.org/2000/svg" viewBox="-78.96251220703124 13.9893798828125 657.9250244140625 122.021240234375" style="background: rgba(0, 0, 0, 0)" preserveAspectRatio="xMidYMid"><defs><linearGradient id="editing-gradient-gradient" x1="0" x2="1" y1="0.5" y2="0.5" gradientUnits="objectBoundingBox"><stop offset="0" stop-color="#00ffff"></stop><stop offset="1" stop-color="#ff00ff"></stop></linearGradient></defs><g><g transform="matrix(1.3,0,0,1.4,-52,164.8)"><path d="M 12.3 -42.5 L -1.7 -42.5 L 6.5 -84.7 L 20.5 -84.7 L 12.3 -42.5 Z M 68 -41.2 L 68 -41.2 L 68 -41.2 Q 60.3 -41.2 60.3 -47.2 L 60.3 -47.2 L 60.3 -47.2 Q 60.3 -49.8 61.4 -54.9 L 61.4 -54.9 L 61.4 -54.9 Q 62.5 -60 62.9 -62.1 L 62.9 -62.1 L 62.9 -62.1 Q 63.8 -66.7 63.8 -68.2 L 63.8 -68.2 L 63.8 -68.2 Q 63.8 -71.5 61.4 -71.5 L 61.4 -71.5 L 61.4 -71.5 Q 59.8 -71.5 58.2 -69.3 L 58.2 -69.3 L 58.2 -69.3 Q 56.7 -67.1 56 -62.6 L 56 -62.6 L 52 -42.5 L 39.5 -41.2 L 43 -58.6 L 43 -58.6 Q 43.6 -61.5 44.1 -64.7 L 44.1 -64.7 L 44.1 -64.7 Q 44.6 -68 44.6 -68.5 L 44.6 -68.5 L 44.6 -68.5 Q 44.6 -71.5 42.4 -71.5 L 42.4 -71.5 L 42.4 -71.5 Q 41 -71.5 39.4 -69.3 L 39.4 -69.3 L 39.4 -69.3 Q 37.8 -67.1 36.9 -62.6 L 36.9 -62.6 L 33 -42.5 L 20.3 -41.2 L 27.1 -75.1 L 37.5 -76.4 L 36.4 -69.9 L 36.4 -69.9 Q 38.1 -73.4 41.1 -74.9 L 41.1 -74.9 L 41.1 -74.9 Q 44.2 -76.4 49 -76.4 L 49 -76.4 L 49 -76.4 Q 51.8 -76.4 53.6 -75.1 L 53.6 -75.1 L 53.6 -75.1 Q 55.4 -73.7 55.9 -71.5 L 55.9 -71.5 L 55.9 -71.5 Q 57 -73.8 59.8 -75.1 L 59.8 -75.1 L 59.8 -75.1 Q 62.6 -76.4 66 -76.4 L 66 -76.4 L 66 -76.4 Q 69.4 -76.4 71.1 -75.7 L 71.1 -75.7 L 71.1 -75.7 Q 72.8 -74.9 73.8 -73.7 L 73.8 -73.7 L 73.8 -73.7 Q 75.6 -71.5 75.6 -67.4 L 75.6 -67.4 L 75.6 -67.4 Q 75.6 -63.3 73.8 -55 L 73.8 -55 L 73.8 -55 Q 73 -50.9 73 -49.4 L 73 -49.4 L 73 -49.4 Q 73 -47.9 73.8 -47 L 73.8 -47 L 73.8 -47 Q 74.7 -46.1 76 -45.9 L 76 -45.9 L 76 -45.9 Q 75.3 -43.8 73.1 -42.5 L 73.1 -42.5 L 73.1 -42.5 Q 70.9 -41.2 68 -41.2 Z M 83.7 -44.4 L 83.7 -44.4 L 83.7 -44.4 Q 82.2 -46.1 81.5 -48.7 L 81.5 -48.7 L 81.5 -48.7 Q 80.8 -51.3 80.8 -55.6 L 80.8 -55.6 L 80.8 -55.6 Q 80.8 -59.9 82.3 -63.8 L 82.3 -63.8 L 82.3 -63.8 Q 83.8 -67.7 86.5 -70.5 L 86.5 -70.5 L 86.5 -70.5 Q 92 -76.4 101 -76.4 L 101 -76.4 L 101 -76.4 Q 104.3 -76.4 106.7 -75.3 L 106.7 -75.3 L 117.6 -76.4 L 112.9 -51.4 L 112.9 -51.4 Q 112.7 -50.7 112.7 -49.3 L 112.7 -49.3 L 112.7 -49.3 Q 112.7 -47.9 113.6 -47 L 113.6 -47 L 113.6 -47 Q 114.4 -46.1 115.7 -45.9 L 115.7 -45.9 L 115.7 -45.9 Q 115.1 -43.8 112.7 -42.5 L 112.7 -42.5 L 112.7 -42.5 Q 110.4 -41.2 107.8 -41.2 L 107.8 -41.2 L 107.8 -41.2 Q 105.1 -41.2 103.4 -42.2 L 103.4 -42.2 L 103.4 -42.2 Q 101.6 -43.2 101.1 -44.8 L 101.1 -44.8 L 101.1 -44.8 Q 100.1 -43.2 97.9 -42.2 L 97.9 -42.2 L 97.9 -42.2 Q 95.7 -41.2 92.8 -41.2 L 92.8 -41.2 L 92.8 -41.2 Q 89.9 -41.2 87.5 -42 L 87.5 -42 L 87.5 -42 Q 85.2 -42.7 83.7 -44.4 Z M 97.2 -70.4 L 97.2 -70.4 L 97.2 -70.4 Q 96.4 -69.2 95.8 -67.3 L 95.8 -67.3 L 95.8 -67.3 Q 95.2 -65.3 94.1 -60.1 L 94.1 -60.1 L 94.1 -60.1 Q 93 -54.9 93 -51.2 L 93 -51.2 L 93 -51.2 Q 93 -47.5 93.6 -46.4 L 93.6 -46.4 L 93.6 -46.4 Q 94.2 -45.3 95.2 -45.3 L 95.2 -45.3 L 95.2 -45.3 Q 97.3 -45.3 98.8 -47.2 L 98.8 -47.2 L 98.8 -47.2 Q 100.3 -49.2 100.9 -52.7 L 100.9 -52.7 L 104.2 -71.4 L 104.2 -71.4 Q 102.9 -72.6 101.3 -72.6 L 101.3 -72.6 L 101.3 -72.6 Q 99.8 -72.6 98.8 -72 L 98.8 -72 L 98.8 -72 Q 97.9 -71.5 97.2 -70.4 Z M 125.4 -69.2 L 125.4 -69.2 L 125.4 -69.2 Q 127.5 -72.3 130.8 -74.3 L 130.8 -74.3 L 130.8 -74.3 Q 134.1 -76.4 138.2 -76.4 L 138.2 -76.4 L 138.2 -76.4 Q 142.2 -76.4 144.1 -75.1 L 144.1 -75.1 L 156.7 -76.4 L 152.3 -51.8 L 152.3 -51.8 Q 150.1 -39.3 145.3 -34.3 L 145.3 -34.3 L 145.3 -34.3 Q 140.8 -29.7 132 -29.7 L 132 -29.7 L 132 -29.7 Q 125.2 -29.7 121.4 -31.8 L 121.4 -31.8 L 121.4 -31.8 Q 117.6 -33.9 117.6 -37.4 L 117.6 -37.4 L 117.6 -37.4 Q 117.6 -40 119.5 -41.5 L 119.5 -41.5 L 119.5 -41.5 Q 121.5 -43.1 124.6 -43.1 L 124.6 -43.1 L 124.6 -43.1 Q 127.3 -43.1 129.3 -41.8 L 129.3 -41.8 L 129.3 -41.8 Q 130.6 -41.2 131.1 -40.3 L 131.1 -40.3 L 131.1 -40.3 Q 129.7 -39 129.7 -36.9 L 129.7 -36.9 L 129.7 -36.9 Q 129.7 -34.2 132.2 -34.2 L 132.2 -34.2 L 132.2 -34.2 Q 136.5 -34.2 138.9 -44.3 L 138.9 -44.3 L 138.9 -44.3 Q 139.6 -47 140.2 -49.8 L 140.2 -49.8 L 140.2 -49.8 Q 137.3 -46.3 130.8 -46.3 L 130.8 -46.3 L 130.8 -46.3 Q 126.3 -46.3 123.6 -48.4 L 123.6 -48.4 L 123.6 -48.4 Q 121 -50.6 121 -55.7 L 121 -55.7 L 121 -55.7 Q 121 -58.9 122.1 -62.5 L 122.1 -62.5 L 122.1 -62.5 Q 123.2 -66.2 125.4 -69.2 Z M 133.7 -55.5 L 133.7 -55.5 L 133.7 -55.5 Q 133.7 -51.2 135.9 -51.2 L 135.9 -51.2 L 135.9 -51.2 Q 137.5 -51.2 138.9 -52.8 L 138.9 -52.8 L 138.9 -52.8 Q 140.1 -54.2 140.5 -56.2 L 140.5 -56.2 L 143.8 -72.6 L 143.8 -72.6 Q 143.5 -72.7 143.2 -72.8 L 143.2 -72.8 L 143.2 -72.8 Q 142.5 -73.1 141.7 -73.1 L 141.7 -73.1 L 141.7 -73.1 Q 137.8 -73.1 135.5 -66.7 L 135.5 -66.7 L 135.5 -66.7 Q 133.7 -61.7 133.7 -55.5 Z M 185.1 -53.3 L 185.1 -53.3 L 185.1 -53.3 Q 186.7 -52.2 186.7 -49.8 L 186.7 -49.8 L 186.7 -49.8 Q 186.7 -47.4 185.5 -45.9 L 185.5 -45.9 L 185.5 -45.9 Q 184.2 -44.3 182.3 -43.3 L 182.3 -43.3 L 182.3 -43.3 Q 178.2 -41.2 173.8 -41.2 L 173.8 -41.2 L 173.8 -41.2 Q 169.3 -41.2 166.7 -42.2 L 166.7 -42.2 L 166.7 -42.2 Q 164.2 -43.1 162.4 -44.9 L 162.4 -44.9 L 162.4 -44.9 Q 159 -48.3 159 -54.5 L 159 -54.5 L 159 -54.5 Q 159 -64.2 164.3 -70.1 L 164.3 -70.1 L 164.3 -70.1 Q 169.9 -76.4 179.7 -76.4 L 179.7 -76.4 L 179.7 -76.4 Q 185.8 -76.4 188.8 -73.8 L 188.8 -73.8 L 188.8 -73.8 Q 191 -71.9 191 -68.8 L 191 -68.8 L 191 -68.8 Q 191 -57.5 171.6 -57.5 L 171.6 -57.5 L 171.6 -57.5 Q 171.3 -55.9 171.3 -54.4 L 171.3 -54.4 L 171.3 -54.4 Q 171.3 -51.5 172.6 -50.4 L 172.6 -50.4 L 172.6 -50.4 Q 173.9 -49.3 176.4 -49.3 L 176.4 -49.3 L 176.4 -49.3 Q 178.8 -49.3 181.4 -50.4 L 181.4 -50.4 L 181.4 -50.4 Q 184 -51.5 185.1 -53.3 Z M 172 -60.3 L 172 -60.3 L 172 -60.3 Q 176.6 -60.3 179.2 -63.1 L 179.2 -63.1 L 179.2 -63.1 Q 181.8 -65.8 181.8 -70.1 L 181.8 -70.1 L 181.8 -70.1 Q 181.8 -71.5 181.3 -72.3 L 181.3 -72.3 L 181.3 -72.3 Q 180.7 -73.1 179.6 -73.1 L 179.6 -73.1 L 179.6 -73.1 Q 178.6 -73.1 177.6 -72.7 L 177.6 -72.7 L 177.6 -72.7 Q 176.7 -72.3 175.7 -70.9 L 175.7 -70.9 L 175.7 -70.9 Q 173.4 -67.7 172 -60.3 Z M 212.3 -64.9 L 212.3 -64.9 L 212.3 -64.9 Q 213.2 -67.3 213.2 -69.4 L 213.2 -69.4 L 213.2 -69.4 Q 213.2 -73.1 210.2 -73.1 L 210.2 -73.1 L 210.2 -73.1 Q 208.6 -73.1 207.3 -71.7 L 207.3 -71.7 L 207.3 -71.7 Q 205.9 -70.3 205.9 -68.5 L 205.9 -68.5 L 205.9 -68.5 Q 205.9 -67.2 207 -66.2 L 207 -66.2 L 207 -66.2 Q 208.4 -64.7 212.2 -62.4 L 212.2 -62.4 L 212.2 -62.4 Q 216 -60.1 217.4 -58.3 L 217.4 -58.3 L 217.4 -58.3 Q 218.9 -56.4 218.9 -53.8 L 218.9 -53.8 L 218.9 -53.8 Q 218.9 -51.2 217.6 -48.8 L 217.6 -48.8 L 217.6 -48.8 Q 216.4 -46.4 214.1 -44.8 L 214.1 -44.8 L 214.1 -44.8 Q 209.3 -41.2 201.7 -41.2 L 201.7 -41.2 L 201.7 -41.2 Q 197.5 -41.2 194.3 -43.4 L 194.3 -43.4 L 194.3 -43.4 Q 191.1 -45.5 191.1 -48 L 191.1 -48 L 191.1 -48 Q 191.1 -50.5 192.9 -51.9 L 192.9 -51.9 L 192.9 -51.9 Q 194.7 -53.4 197.4 -53.4 L 197.4 -53.4 L 197.4 -53.4 Q 200.1 -53.4 201.8 -52.4 L 201.8 -52.4 L 201.8 -52.4 Q 201 -50.3 201 -48.9 L 201 -48.9 L 201 -48.9 Q 201 -44.7 204.5 -44.7 L 204.5 -44.7 L 204.5 -44.7 Q 206.1 -44.7 207.1 -45.6 L 207.1 -45.6 L 207.1 -45.6 Q 208.1 -46.6 208.1 -48.2 L 208.1 -48.2 L 208.1 -48.2 Q 208.1 -51.5 202.6 -55 L 202.6 -55 L 202.6 -55 Q 198.1 -57.9 197.1 -59.1 L 197.1 -59.1 L 197.1 -59.1 Q 195.4 -61.1 195.4 -63.7 L 195.4 -63.7 L 195.4 -63.7 Q 195.4 -66.2 196.6 -68.7 L 196.6 -68.7 L 196.6 -68.7 Q 197.8 -71.1 200.1 -72.8 L 200.1 -72.8 L 200.1 -72.8 Q 204.7 -76.4 212.9 -76.4 L 212.9 -76.4 L 212.9 -76.4 Q 217 -76.4 219.5 -74.7 L 219.5 -74.7 L 219.5 -74.7 Q 221.9 -73.1 221.9 -70.3 L 221.9 -70.3 L 221.9 -70.3 Q 221.9 -67.4 220.2 -65.8 L 220.2 -65.8 L 220.2 -65.8 Q 218.6 -64.2 215.5 -64.2 L 215.5 -64.2 L 215.5 -64.2 Q 213.4 -64.2 212.3 -64.9 Z M 263.4 -63.1 L 276.3 -64.2 L 276.3 -64.2 Q 271.7 -54.1 271.7 -42.4 L 271.7 -42.4 L 271.7 -42.4 Q 270 -41.2 267.5 -41.2 L 267.5 -41.2 L 267.5 -41.2 Q 265 -41.2 263.4 -42.4 L 263.4 -42.4 L 263.4 -42.4 Q 261.8 -43.6 261.4 -44.8 L 261.4 -44.8 L 261.4 -44.8 Q 259.8 -43.1 257.2 -42.2 L 257.2 -42.2 L 257.2 -42.2 Q 254.6 -41.2 251.9 -41.2 L 251.9 -41.2 L 251.9 -41.2 Q 249.1 -41.2 246.7 -42.1 L 246.7 -42.1 L 246.7 -42.1 Q 244.3 -43 242.5 -45 L 242.5 -45 L 242.5 -45 Q 238.4 -49.3 238.4 -57.6 L 238.4 -57.6 L 238.4 -57.6 Q 238.4 -70.4 245.2 -78.1 L 245.2 -78.1 L 245.2 -78.1 Q 252.3 -86 264.8 -86 L 264.8 -86 L 264.8 -86 Q 273.4 -86 276.5 -81.5 L 276.5 -81.5 L 276.5 -81.5 Q 277.4 -80.1 277.4 -78.4 L 277.4 -78.4 L 277.4 -78.4 Q 277.4 -76.7 276.7 -75.3 L 276.7 -75.3 L 276.7 -75.3 Q 276 -73.8 274.8 -72.7 L 274.8 -72.7 L 274.8 -72.7 Q 272.1 -70.1 268.7 -70.1 L 268.7 -70.1 L 268.7 -70.1 Q 267.3 -70.1 266 -70.6 L 266 -70.6 L 266 -70.6 Q 266.3 -72.5 266.3 -74.7 L 266.3 -74.7 L 266.3 -74.7 Q 266.3 -77 266.1 -78 L 266.1 -78 L 266.1 -78 Q 266 -79 265.6 -79.9 L 265.6 -79.9 L 265.6 -79.9 Q 264.8 -81.6 262.9 -81.6 L 262.9 -81.6 L 262.9 -81.6 Q 261.1 -81.6 259.1 -79.6 L 259.1 -79.6 L 259.1 -79.6 Q 257.1 -77.7 255.5 -74.5 L 255.5 -74.5 L 255.5 -74.5 Q 252 -67.3 252 -58.7 L 252 -58.7 L 252 -58.7 Q 252 -54.7 253.5 -51.9 L 253.5 -51.9 L 253.5 -51.9 Q 255.2 -48.8 258.1 -48.8 L 258.1 -48.8 L 258.1 -48.8 Q 259.1 -48.8 260.1 -49.3 L 260.1 -49.3 L 260.1 -49.3 Q 261 -49.8 261.4 -50.2 L 261.4 -50.2 L 263.4 -63.1 Z M 282.3 -44.4 L 282.3 -44.4 L 282.3 -44.4 Q 280.8 -46.1 280.1 -48.7 L 280.1 -48.7 L 280.1 -48.7 Q 279.4 -51.3 279.4 -55.6 L 279.4 -55.6 L 279.4 -55.6 Q 279.4 -59.9 280.9 -63.8 L 280.9 -63.8 L 280.9 -63.8 Q 282.4 -67.7 285 -70.5 L 285 -70.5 L 285 -70.5 Q 290.6 -76.4 299.6 -76.4 L 299.6 -76.4 L 299.6 -76.4 Q 302.9 -76.4 305.3 -75.3 L 305.3 -75.3 L 316.2 -76.4 L 311.5 -51.4 L 311.5 -51.4 Q 311.3 -50.7 311.3 -49.3 L 311.3 -49.3 L 311.3 -49.3 Q 311.3 -47.9 312.2 -47 L 312.2 -47 L 312.2 -47 Q 313 -46.1 314.3 -45.9 L 314.3 -45.9 L 314.3 -45.9 Q 313.7 -43.8 311.3 -42.5 L 311.3 -42.5 L 311.3 -42.5 Q 309 -41.2 306.4 -41.2 L 306.4 -41.2 L 306.4 -41.2 Q 303.7 -41.2 302 -42.2 L 302 -42.2 L 302 -42.2 Q 300.2 -43.2 299.7 -44.8 L 299.7 -44.8 L 299.7 -44.8 Q 298.7 -43.2 296.5 -42.2 L 296.5 -42.2 L 296.5 -42.2 Q 294.3 -41.2 291.4 -41.2 L 291.4 -41.2 L 291.4 -41.2 Q 288.5 -41.2 286.1 -42 L 286.1 -42 L 286.1 -42 Q 283.8 -42.7 282.3 -44.4 Z M 295.8 -70.4 L 295.8 -70.4 L 295.8 -70.4 Q 295 -69.2 294.4 -67.3 L 294.4 -67.3 L 294.4 -67.3 Q 293.8 -65.3 292.7 -60.1 L 292.7 -60.1 L 292.7 -60.1 Q 291.6 -54.9 291.6 -51.2 L 291.6 -51.2 L 291.6 -51.2 Q 291.6 -47.5 292.2 -46.4 L 292.2 -46.4 L 292.2 -46.4 Q 292.8 -45.3 293.8 -45.3 L 293.8 -45.3 L 293.8 -45.3 Q 295.9 -45.3 297.4 -47.2 L 297.4 -47.2 L 297.4 -47.2 Q 298.9 -49.2 299.4 -52.7 L 299.4 -52.7 L 302.8 -71.4 L 302.8 -71.4 Q 301.5 -72.6 299.9 -72.6 L 299.9 -72.6 L 299.9 -72.6 Q 298.4 -72.6 297.4 -72 L 297.4 -72 L 297.4 -72 Q 296.5 -71.5 295.8 -70.4 Z M 335 -46 L 335 -46 L 335 -46 Q 333 -41.2 326.6 -41.2 L 326.6 -41.2 L 326.6 -41.2 Q 323.4 -41.2 321.4 -43.4 L 321.4 -43.4 L 321.4 -43.4 Q 319.7 -45.3 319.7 -47.4 L 319.7 -47.4 L 319.7 -47.4 Q 319.7 -52.2 322 -62.7 L 322 -62.7 L 326.6 -87.3 L 339.6 -88.6 L 333.4 -56.2 L 333.4 -56.2 Q 332.3 -51.4 332.3 -49.8 L 332.3 -49.8 L 332.3 -49.8 Q 332.3 -46.1 335 -46 Z M 355.7 -46 L 355.7 -46 L 355.7 -46 Q 353.7 -41.2 347.4 -41.2 L 347.4 -41.2 L 347.4 -41.2 Q 344.2 -41.2 342.1 -43.4 L 342.1 -43.4 L 342.1 -43.4 Q 340.5 -45.3 340.5 -47.4 L 340.5 -47.4 L 340.5 -47.4 Q 340.5 -52.2 342.7 -62.7 L 342.7 -62.7 L 347.4 -87.3 L 360.4 -88.6 L 354.2 -56.2 L 354.2 -56.2 Q 353.1 -51.4 353.1 -49.8 L 353.1 -49.8 L 353.1 -49.8 Q 353.1 -46.1 355.7 -46 Z M 387.1 -53.3 L 387.1 -53.3 L 387.1 -53.3 Q 388.7 -52.2 388.7 -49.8 L 388.7 -49.8 L 388.7 -49.8 Q 388.7 -47.4 387.4 -45.9 L 387.4 -45.9 L 387.4 -45.9 Q 386.2 -44.3 384.2 -43.3 L 384.2 -43.3 L 384.2 -43.3 Q 380.2 -41.2 375.7 -41.2 L 375.7 -41.2 L 375.7 -41.2 Q 371.3 -41.2 368.7 -42.2 L 368.7 -42.2 L 368.7 -42.2 Q 366.1 -43.1 364.4 -44.9 L 364.4 -44.9 L 364.4 -44.9 Q 361 -48.3 361 -54.5 L 361 -54.5 L 361 -54.5 Q 361 -64.2 366.3 -70.1 L 366.3 -70.1 L 366.3 -70.1 Q 371.9 -76.4 381.7 -76.4 L 381.7 -76.4 L 381.7 -76.4 Q 387.8 -76.4 390.8 -73.8 L 390.8 -73.8 L 390.8 -73.8 Q 393 -71.9 393 -68.8 L 393 -68.8 L 393 -68.8 Q 393 -57.5 373.6 -57.5 L 373.6 -57.5 L 373.6 -57.5 Q 373.3 -55.9 373.3 -54.4 L 373.3 -54.4 L 373.3 -54.4 Q 373.3 -51.5 374.6 -50.4 L 374.6 -50.4 L 374.6 -50.4 Q 375.9 -49.3 378.4 -49.3 L 378.4 -49.3 L 378.4 -49.3 Q 380.8 -49.3 383.4 -50.4 L 383.4 -50.4 L 383.4 -50.4 Q 386 -51.5 387.1 -53.3 Z M 374 -60.3 L 374 -60.3 L 374 -60.3 Q 378.6 -60.3 381.2 -63.1 L 381.2 -63.1 L 381.2 -63.1 Q 383.8 -65.8 383.8 -70.1 L 383.8 -70.1 L 383.8 -70.1 Q 383.8 -71.5 383.3 -72.3 L 383.3 -72.3 L 383.3 -72.3 Q 382.7 -73.1 381.6 -73.1 L 381.6 -73.1 L 381.6 -73.1 Q 380.5 -73.1 379.6 -72.7 L 379.6 -72.7 L 379.6 -72.7 Q 378.7 -72.3 377.7 -70.9 L 377.7 -70.9 L 377.7 -70.9 Q 375.4 -67.7 374 -60.3 Z M 415.2 -60.5 L 415.2 -60.5 L 415.2 -60.5 Q 417.5 -64.6 417.5 -68.7 L 417.5 -68.7 L 417.5 -68.7 Q 417.5 -71.5 415.5 -71.5 L 415.5 -71.5 L 415.5 -71.5 Q 414 -71.5 412.4 -68.8 L 412.4 -68.8 L 412.4 -68.8 Q 410.7 -66.2 410.2 -62.8 L 410.2 -62.8 L 406.9 -42.5 L 393.7 -41.2 L 400.2 -75.1 L 410.7 -76.4 L 409.6 -69.9 L 409.6 -69.9 Q 412.7 -76.4 419.8 -76.4 L 419.8 -76.4 L 419.8 -76.4 Q 423.5 -76.4 425.5 -74.5 L 425.5 -74.5 L 425.5 -74.5 Q 427.5 -72.6 427.5 -68.6 L 427.5 -68.6 L 427.5 -68.6 Q 427.5 -64.7 424.9 -62.2 L 424.9 -62.2 L 424.9 -62.2 Q 422.3 -59.7 417.9 -59.7 L 417.9 -59.7 L 417.9 -59.7 Q 416 -59.7 415.2 -60.5 Z M 448.9 -49.7 L 448.9 -49.7 L 448.9 -49.7 Q 445.6 -46.3 439.5 -46.3 L 439.5 -46.3 L 439.5 -46.3 Q 431.9 -46.3 430.3 -51.8 L 430.3 -51.8 L 430.3 -51.8 Q 429.8 -53.5 429.8 -55.3 L 429.8 -55.3 L 429.8 -55.3 Q 429.8 -57.2 430.1 -59.1 L 430.1 -59.1 L 433.1 -75.1 L 446.1 -76.4 L 442.6 -57.8 L 442.6 -57.8 Q 442.5 -56.9 442.3 -56 L 442.3 -56 L 442.3 -56 Q 442.1 -55.1 442.1 -54.2 L 442.1 -54.2 L 442.1 -54.2 Q 442.1 -53.3 442.4 -52.7 L 442.4 -52.7 L 442.4 -52.7 Q 442.7 -52.1 443.2 -51.7 L 443.2 -51.7 L 443.2 -51.7 Q 444 -51.2 445.3 -51.2 L 445.3 -51.2 L 445.3 -51.2 Q 446.7 -51.2 447.9 -52.8 L 447.9 -52.8 L 447.9 -52.8 Q 449.1 -54.5 449.7 -57.4 L 449.7 -57.4 L 453.2 -75.1 L 465.8 -76.4 L 461 -51.2 L 461 -51.2 Q 458.6 -39 453.8 -34.1 L 453.8 -34.1 L 453.8 -34.1 Q 451.3 -31.6 448 -30.6 L 448 -30.6 L 448 -30.6 Q 444.8 -29.6 440.6 -29.6 L 440.6 -29.6 L 440.6 -29.6 Q 433.9 -29.6 430.1 -31.7 L 430.1 -31.7 L 430.1 -31.7 Q 426.2 -33.8 426.2 -37.4 L 426.2 -37.4 L 426.2 -37.4 Q 426.2 -40 428.2 -41.5 L 428.2 -41.5 L 428.2 -41.5 Q 430.2 -43 433.3 -43 L 433.3 -43 L 433.3 -43 Q 436 -43 438 -41.8 L 438 -41.8 L 438 -41.8 Q 439.2 -41.1 439.8 -40.2 L 439.8 -40.2 L 439.8 -40.2 Q 438.3 -39 438.3 -36.8 L 438.3 -36.8 L 438.3 -36.8 Q 438.3 -34 440.9 -34 L 440.9 -34 L 440.9 -34 Q 445.1 -34 447.5 -43.8 L 447.5 -43.8 L 447.5 -43.8 Q 448.2 -46.6 448.9 -49.7 Z" fill="url(#editing-gradient-gradient)"></path></g></g><style>text {
  font-size: 64px;
  font-family: Arial Black;
  dominant-baseline: central;
  text-anchor: middle;
}</style></svg>